<svg xmlns="http://www.w3.org/2000/svg" xmlns:xlink="http://www.w3.org/1999/xlink" fill="none" version="1.1" width="512" height="512" viewBox="0 0 512 512"><defs><clipPath id="master_svg0_1_0"><rect x="0" y="0" width="512" height="512" rx="0"/></clipPath><clipPath id="master_svg1_1_095"><rect x="0" y="0" width="512" height="512" rx="0"/></clipPath><linearGradient x1="-0.06857814639806747" y1="0.3507055640220642" x2="0.5179248922514091" y2="0.9310499621080123" id="master_svg2_1_104"><stop offset="0%" stop-color="#66E6FF" stop-opacity="1"/><stop offset="0%" stop-color="#63E5FF" stop-opacity="1"/><stop offset="10.999999940395355%" stop-color="#38DEFF" stop-opacity="1"/><stop offset="20.999999344348907%" stop-color="#19D8FF" stop-opacity="1"/><stop offset="28.999999165534973%" stop-color="#06D5FF" stop-opacity="1"/><stop offset="34.00000035762787%" stop-color="#00D4FF" stop-opacity="1"/><stop offset="73.00000190734863%" stop-color="#07B3FF" stop-opacity="1"/><stop offset="100%" stop-color="#0D9AFF" stop-opacity="1"/></linearGradient><linearGradient x1="0.4708944261074066" y1="0.06752387434244156" x2="1.116434141996708" y2="0.7443616103716713" id="master_svg3_1_101"><stop offset="0%" stop-color="#8FF5FF" stop-opacity="1"/><stop offset="9.000000357627869%" stop-color="#66F1FF" stop-opacity="1"/><stop offset="17.000000178813934%" stop-color="#4AEFFF" stop-opacity="1"/><stop offset="20.999999344348907%" stop-color="#40EFFF" stop-opacity="1"/><stop offset="31.999999284744263%" stop-color="#32E0FF" stop-opacity="1"/><stop offset="60.00000238418579%" stop-color="#16C2FF" stop-opacity="1"/><stop offset="82.99999833106995%" stop-color="#05B0FF" stop-opacity="1"/><stop offset="100%" stop-color="#00AAFF" stop-opacity="1"/></linearGradient><linearGradient x1="0.38708874583244324" y1="0.3973681926727295" x2="0.49154744351363194" y2="0.7867378619698536" id="master_svg4_1_098"><stop offset="0%" stop-color="#0086FA" stop-opacity="1"/><stop offset="100%" stop-color="#003AE6" stop-opacity="1"/></linearGradient></defs><g clip-path="url(#master_svg0_1_0)"><g clip-path="url(#master_svg1_1_095)"><path d="M240.20478782226562,188.05759773535158L108.46719362226563,126.64320373535156C106.87999633226562,129.48480533535155,106.59839481226562,133.04320333535156,108.21119752226562,136.24320313535156L249.13920782226563,418.0992237353516C250.54720782226562,420.9408137353516,253.28640782226563,422.34883373535155,255.9999978222656,422.34883373535155L246.04160782226563,196.83843973535156C245.86240782226562,193.04962873535158,243.60961782226562,189.67042873535155,240.17919782226562,188.05763673535156L240.20478782226562,188.05759773535158Z" fill="url(#master_svg2_1_104)" fill-opacity="1" style="mix-blend-mode:passthrough"/><path d="M262.476840390625,173.6959842167969L403.532870390625,126.64319221679688C402.176060390625,124.26239021679687,399.897670390625,122.39359321679687,396.953640390625,121.70238921679687L262.963240390625,90.44479369679688C258.380840390625,89.36959838679688,253.593630390625,89.36959838679688,249.011250390625,90.44479369679688L115.020849190625,121.70238921679687C112.076845690625,122.39359321679687,109.798447290625,124.26239021679687,108.441650390625,126.64319221679688L249.497650390625,173.6959842167969C253.696040390625,175.1039882167969,258.252850390625,175.1039882167969,262.451250390625,173.6959842167969L262.476840390625,173.6959842167969Z" fill="url(#master_svg3_1_101)" fill-opacity="1" style="mix-blend-mode:passthrough"/><path d="M403.532765234375,126.64322326660157L271.795166234375,188.05761673535156C268.364774234375,189.67040973535157,266.111962234375,193.04960673535157,265.932763134375,196.83841673535156L255.974365234375,422.34880373535157C258.713564434375,422.34880373535157,261.427157834375,420.94078373535154,262.835165934375,418.09919373535155L403.763155234375,136.24320313535156C405.37596523437503,133.01760773535156,405.094365234375,129.45919963535155,403.507145234375,126.64320373535156L403.532765234375,126.64322326660157Z" fill="url(#master_svg4_1_098)" fill-opacity="1" style="mix-blend-mode:passthrough"/></g></g></svg>